# xmcd CD database file
#
# Track frame offsets:
#	150
#	19349
#	35435
#	54673
#	74569
#	90262
#	110999
#	132642
#	153234
#	171830
#	190206
#	206033
#
# Disc length: 3059 seconds
#
# Revision: 1
# Processed by: cddbd v1.5.2PL0 Copyright (c) Steve Scherf et al.
# Submitted via: CDex 1.70beta2
#
DISCID=b00bf10c
DTITLE=GMM Artist - Downtown Story
DYEAR=2008
DGENRE=Jazz
TTITLE0=Downtown Story/รวมศิลปิน
TTITLE1=อดใจรอ/นิว+จิ๋ว
TTITLE2=ที่สุด/จิระศักดิ์ ปานพุ่ม
TTITLE3=คนดีๆทำไมไม่รัก/ปวริศา เพ็ญชาติ
TTITLE4=เสียบางอย่างเพื่อได้บางอย่าง/นิว+จิ๋ว
TTITLE5=ปากไม่ตรงกับใจ/แนน วาทิยา
TTITLE6=รักฉันบ้างรึเปล่า/วฤตตา ภิรมย์ภักดี
TTITLE7=คนอกหัก/กบ DOS ลูกปัด
TTITLE8=คนที่เหงาเท่าๆกับฉัน/ทอฟฟี่ นิชาภา
TTITLE9=แค่เพียงฝัน/นัท มีเรีย
TTITLE10=True  Love?Where are you?/ลูกปัด
TTITLE11=อ้วนจัง/ป๊อป Calories Blah Blah นิว+จิ๋ว แนน
EXTD=YEAR: 2008
EXTT0=
EXTT1=
EXTT2=
EXTT3=
EXTT4=
EXTT5=
EXTT6=
EXTT7=
EXTT8=
EXTT9=
EXTT10=
EXTT11=
PLAYORDER=
